<?xml version="1.0" encoding="UTF-8" standalone="no"?>
<svg
   xmlns:dc="http://purl.org/dc/elements/1.1/"
   xmlns:cc="http://creativecommons.org/ns#"
   xmlns:rdf="http://www.w3.org/1999/02/22-rdf-syntax-ns#"
   xmlns:svg="http://www.w3.org/2000/svg"
   xmlns="http://www.w3.org/2000/svg"
   xmlns:sodipodi="http://sodipodi.sourceforge.net/DTD/sodipodi-0.dtd"
   xmlns:inkscape="http://www.inkscape.org/namespaces/inkscape"
   version="1.1"
   id="svg1208"
   width="1088.1926"
   height="362.3074"
   viewBox="0 0 1088.1926 362.30741"
   sodipodi:docname="Mous_(2015).svg"
   inkscape:version="1.0.1 (3bc2e813f5, 2020-09-07)">
  <style
     id="style1781"></style>
  <metadata
     id="metadata1214">
    <rdf:RDF>
      <cc:Work
         rdf:about="">
        <dc:format>image/svg+xml</dc:format>
        <dc:type
           rdf:resource="http://purl.org/dc/dcmitype/StillImage" />
        <dc:title></dc:title>
      </cc:Work>
    </rdf:RDF>
  </metadata>
  <defs
     id="defs1212" />
  <sodipodi:namedview
     pagecolor="#ffffff"
     bordercolor="#666666"
     borderopacity="1"
     objecttolerance="10"
     gridtolerance="10"
     guidetolerance="10"
     inkscape:pageopacity="0"
     inkscape:pageshadow="2"
     inkscape:window-width="1366"
     inkscape:window-height="706"
     id="namedview1210"
     showgrid="false"
     inkscape:zoom="0.58115339"
     inkscape:cx="554.77027"
     inkscape:cy="131.31358"
     inkscape:window-x="-8"
     inkscape:window-y="-8"
     inkscape:window-maximized="1"
     inkscape:current-layer="g1216" />
  <g
     inkscape:groupmode="layer"
     inkscape:label="Image"
     id="g1216"
     transform="translate(384.06797,127.8732)">
    <g
       id="g1812"
       style="fill:#000000"
       transform="matrix(3.4,0,0,3.4,-384.06797,-127.8732)">
      <path
         id="path1792"
         style="opacity:0.99;fill:#000000;stroke-width:2.09254;stroke-linecap:round;paint-order:stroke fill markers"
         inkscape:transform-center-x="-8.0586604"
         inkscape:transform-center-y="-17.696852"
         d="M 41.052734,35.507812 0,106.56055 h 123.10156 l -41.048826,-71.052738 -20.5,35.482422 z"
         sodipodi:nodetypes="cccccc" />
      <path
         id="path1798"
         style="opacity:0.99;fill:#000000;stroke-width:1.63842;stroke-linecap:round;paint-order:stroke fill markers"
         d="m 186.25399,71.0345 a 35.526501,35.526501 0 0 1 -35.5265,35.5265 35.526501,35.526501 0 0 1 -35.5265,-35.5265 35.526501,35.526501 0 0 1 35.5265,-35.526501 35.526501,35.526501 0 0 1 35.5265,35.526501 z" />
      <path
         id="path1801"
         style="opacity:0.99;fill:#000000;stroke-width:1.63842;stroke-linecap:round;paint-order:stroke fill markers"
         d="m 263.393,71.034501 c 0,19.620744 -15.90576,35.526499 -35.5265,35.526499 -19.62074,0 -35.5265,-15.905755 -35.5265,-35.526499 z"
         sodipodi:nodetypes="cscc" />
      <path
         id="path1803"
         style="opacity:0.99;fill:#000000;stroke-width:1.63842;stroke-linecap:round;paint-order:stroke fill markers"
         d="m 284.5293,0 c -19.62074,0 -35.52539,15.906603 -35.52539,35.527344 0,19.620739 15.90465,35.52539 35.52539,35.52539 v 35.453126 c 19.62074,0 35.52734,-15.904651 35.52734,-35.525391 0,-19.620742 -15.9066,-35.527344 -35.52734,-35.527344 z" />
    </g>
  </g>
</svg>
